# xmcd
#
# Track frame offsets: 
#        150
#        8247
#        22066
#        31072
#        47199
#        56320
#        65348
#        80033
#        90381
#        103952
#        115402
#        125485
#        135939
#        149652
#        159190
#        174026
#        183690
#        189604
#        205327
#        214581
#
# Disc length: 3031 seconds
#
# Revision: 2
# Processed by: cddbd v1.5.2PL0 Copyright (c) Steve Scherf et al.
# Submitted via: ExactAudioCopy v1.0b4
#
DISCID=160bd514
DTITLE=Various Artist - Nashville Steel Guitar * 20 Greatest
DYEAR=2010
DGENRE=Country Steel Guitar
TTITLE0=Roy Wiggins - Steel Guitar Chimes
TTITLE1=Buddy Emmons and Shot Jackson - I'll Be All Smiles Tonight
TTITLE2=Leon McAuliff - Blue Man's Blues
TTITLE3=Nashville Rhythm Section - Danny Boy
TTITLE4=Jimmy Day - Singing Strings Of Steel
TTITLE5=Leon McAuliff - Boogie On Strings
TTITLE6=Buddy Emmons and Ray Pennington - Rubber Dolly
TTITLE7=Roy Wiggins - Red River Valley
TTITLE8=Shot Jackson and Buddy Emmons - Silver Threads Among The Gold
TTITLE9=Leon McAuliff - Cimarron Rag
TTITLE10=Nashville Rhythm Section - Amazing Grace
TTITLE11=Roy Wiggins - Will The Circle Be Unbroken
TTITLE12=Jimmy Day - Beautiful Dreamer
TTITLE13=Leon McAuliff - Columbus Stockade Blues
TTITLE14=Nashville Rhythm Section - What A Friend We Have In Jesus
TTITLE15=Leon McAuliff - Steel Guitar Chimes
TTITLE16=Roy Wiggins - Maiden's Prayer
TTITLE17=Roy Wiggins - Anytime
TTITLE18=Roy Wiggins and Jim Baker - Little Drummer Boy
TTITLE19=Roy Wiggins and Jim Baker - Silver Bells
EXTD=2010 Gusto Records, Inc., Nashville, Tennessee\nTV7-0772-2
EXTT0=
EXTT1=
EXTT2=
EXTT3=
EXTT4=
EXTT5=
EXTT6=
EXTT7=
EXTT8=
EXTT9=
EXTT10=
EXTT11=
EXTT12=
EXTT13=
EXTT14=
EXTT15=
EXTT16=
EXTT17=
EXTT18=
EXTT19=
PLAYORDER=
